<?xml version="1.0" standalone="no"?>
<!DOCTYPE svg PUBLIC "-//W3C//DTD SVG 20010904//EN"
 "http://www.w3.org/TR/2001/REC-SVG-20010904/DTD/svg10.dtd">
<svg version="1.0" xmlns="http://www.w3.org/2000/svg"
 width="140.000000pt" height="140.000000pt" viewBox="0 0 140.000000 140.000000"
 preserveAspectRatio="xMidYMid meet">
<metadata>
Created by potrace 1.14, written by Peter Selinger 2001-2017
</metadata>
<g transform="translate(0.000000,140.000000) scale(0.100000,-0.100000)"
fill="#000000" stroke="none">
<path d="M656 1389 c4 -8 0 -9 -15 -4 -21 6 -70 -21 -71 -39 0 -6 5 -5 12 2
18 18 25 15 39 -20 11 -30 13 -31 16 -10 5 26 7 27 38 6 27 -18 35 -5 10 16
-8 7 -15 23 -15 36 0 13 -5 24 -11 24 -5 0 -7 -5 -3 -11z"/>
<path d="M727 1379 c-3 -11 -1 -16 5 -13 5 3 22 -6 38 -21 16 -15 33 -24 40
-20 6 4 19 1 28 -5 9 -7 5 -1 -10 13 -15 14 -23 27 -17 29 5 2 -10 11 -35 20
-42 16 -44 16 -49 -3z"/>
<path d="M550 1380 c0 -5 7 -10 16 -10 8 0 12 5 9 10 -3 6 -10 10 -16 10 -5 0
-9 -4 -9 -10z"/>
<path d="M520 1369 c0 -5 5 -7 10 -4 6 3 10 8 10 11 0 2 -4 4 -10 4 -5 0 -10
-5 -10 -11z"/>
<path d="M465 1338 c-17 -13 -25 -15 -28 -6 -3 7 -4 3 -4 -8 1 -12 6 -20 12
-17 8 2 10 -7 7 -27 -5 -37 5 -39 19 -4 9 26 10 26 31 8 l21 -19 -7 37 c-6 33
-4 37 16 40 19 3 16 5 -10 9 -24 4 -40 0 -57 -13z"/>
<path d="M885 1330 c10 -11 22 -17 27 -14 5 3 1 12 -9 20 -27 20 -39 17 -18
-6z"/>
<path d="M723 1326 c3 -8 -3 -22 -14 -32 -23 -20 -25 -39 -4 -30 8 3 21 8 29
12 9 3 20 -13 36 -51 28 -68 44 -82 38 -31 -2 20 -2 36 0 36 2 0 15 -13 29
-30 41 -49 48 -34 9 20 -42 59 -43 63 -13 55 12 -3 4 4 -18 16 -22 12 -43 26
-46 31 -3 4 -16 10 -28 13 -16 3 -21 0 -18 -9z"/>
<path d="M860 1320 c0 -5 5 -10 11 -10 8 0 8 -4 -1 -15 -14 -17 -5 -36 15 -29
9 4 24 -13 44 -48 20 -35 31 -46 31 -33 1 19 1 19 15 1 7 -10 18 -15 24 -12
11 7 25 -33 19 -58 -2 -14 -8 -12 -30 9 -15 14 -31 25 -35 25 -5 0 -14 14 -20
30 -6 17 -18 30 -27 30 -20 0 -21 -24 -1 -40 9 -7 12 -16 8 -19 -16 -11 -31
-58 -23 -70 5 -10 11 -8 22 8 15 21 16 19 31 -31 9 -29 19 -70 23 -90 8 -50
22 -40 18 14 l-3 43 17 -37 c9 -21 20 -38 25 -38 10 0 -2 45 -29 108 -22 49
-22 52 -3 42 10 -6 27 -10 36 -8 17 3 40 -46 43 -92 l2 -25 8 25 c7 21 8 22 9
5 1 -15 3 -17 10 -6 6 8 8 1 7 -23 -1 -19 -5 -38 -8 -41 -7 -8 -33 34 -42 68
-3 15 -11 27 -16 27 -13 0 -13 -47 0 -55 6 -4 6 -12 0 -23 -6 -9 -14 -30 -20
-45 l-10 -28 -35 27 c-22 16 -34 33 -31 41 8 19 -11 53 -29 53 -33 0 -36 -80
-3 -80 9 -1 8 -4 -2 -10 -20 -11 -66 -108 -56 -117 4 -4 18 6 31 22 l24 30 1
-83 c0 -90 14 -103 26 -24 l7 47 11 -32 c20 -59 29 -49 22 26 -4 41 -10 79
-13 85 -4 5 4 7 18 3 16 -4 30 0 45 14 l22 21 0 -62 c-1 -46 -4 -60 -14 -56
-17 6 -36 -18 -33 -41 2 -10 -9 -36 -24 -57 -27 -41 -29 -64 -1 -30 15 18 15
17 9 -11 -3 -16 -8 -39 -11 -50 -2 -11 4 -4 15 15 17 30 27 28 22 -3 -1 -5 3
-6 9 -2 6 3 8 11 5 16 -4 5 0 9 8 9 8 0 18 7 21 16 4 11 1 14 -12 10 -16 -5
-18 -2 -14 24 2 16 9 30 15 30 6 0 18 7 28 16 16 15 17 14 13 -8 -5 -20 -3
-19 11 6 19 31 26 117 10 113 -5 -1 -9 -5 -7 -9 1 -5 -2 -8 -7 -8 -5 0 -11 23
-13 50 -2 34 1 49 8 46 6 -2 17 1 24 7 10 10 12 7 7 -10 -3 -13 -1 -26 4 -29
5 -3 7 -9 4 -14 -3 -5 -2 -11 3 -14 7 -4 7 37 -1 151 0 12 -5 19 -9 17 -4 -3
-8 0 -8 6 0 6 -4 9 -9 6 -10 -7 -34 52 -26 64 3 4 -6 18 -19 31 -30 29 -24 44
10 23 22 -15 24 -15 18 0 -3 9 -10 14 -14 11 -9 -6 -40 39 -40 58 0 12 -53 67
-65 67 -2 0 -1 -9 3 -21 5 -11 12 -20 17 -20 6 0 16 -12 23 -26 12 -21 12 -27
0 -34 -8 -6 -18 -3 -26 9 -7 9 -18 16 -23 14 -6 -1 -8 2 -4 8 4 6 1 18 -7 27
-7 9 -12 18 -10 20 3 4 -67 63 -74 63 -2 0 -4 -4 -4 -10z m223 -521 c9 1 8 -8
-9 -48 -12 -28 -16 -31 -29 -21 -19 16 -19 36 0 44 8 3 15 18 16 33 0 22 2 24
8 10 4 -10 10 -18 14 -18z"/>
<path d="M557 1313 c-10 -3 -16 -11 -13 -18 2 -7 -9 -25 -25 -41 -38 -36 -37
-51 1 -24 l30 21 1 -23 c1 -40 10 -102 15 -107 10 -10 24 24 24 59 l1 35 30
-37 c44 -54 54 -37 19 32 l-30 59 38 -5 37 -4 -30 14 c-16 9 -38 15 -47 16
-10 0 -17 5 -15 11 2 14 -11 18 -36 12z"/>
<path d="M914 1302 c4 -3 14 -7 22 -8 9 -1 13 0 10 4 -4 3 -14 7 -22 8 -9 1
-13 0 -10 -4z"/>
<path d="M347 1272 c-10 -10 -17 -26 -17 -36 0 -9 -3 -15 -7 -13 -5 3 -9 -9
-9 -26 l-1 -30 14 28 c12 22 17 25 24 14 5 -8 9 -11 10 -6 1 4 3 12 4 17 1 6
3 19 4 30 0 11 11 25 24 30 22 9 22 9 -4 9 -14 1 -33 -7 -42 -17z"/>
<path d="M398 1249 c-10 -6 -18 -17 -18 -25 0 -9 -12 -31 -26 -50 -15 -19 -24
-37 -21 -41 4 -3 9 2 13 11 13 34 20 14 16 -46 -4 -67 12 -74 21 -10 7 46 14
49 22 13 4 -18 13 -31 21 -31 10 0 13 6 10 18 -3 9 -8 38 -12 65 -6 46 -6 47
20 47 14 0 26 5 26 10 0 6 -9 10 -20 10 -11 0 -24 9 -28 19 -5 15 -11 17 -24
10z"/>
<path d="M703 1194 c-17 -13 -17 -15 6 -34 13 -11 18 -20 13 -20 -18 0 -71
-85 -63 -99 6 -8 17 -3 39 20 l31 31 11 -42 c6 -24 17 -74 25 -112 7 -38 16
-72 19 -75 14 -14 20 11 18 75 l-1 67 30 -57 c27 -53 49 -74 49 -48 0 6 -16
52 -35 101 -19 50 -35 93 -35 95 0 3 13 -2 29 -11 50 -25 44 1 -7 34 -27 17
-53 31 -59 31 -5 0 -9 10 -9 21 1 29 -36 43 -61 23z"/>
<path d="M257 1163 c-4 -3 -7 -16 -7 -27 0 -17 2 -18 10 -6 6 9 10 10 10 3 0
-6 -5 -15 -10 -18 -6 -4 -10 -14 -9 -23 5 -54 -2 -112 -13 -109 -9 1 -14 -13
-15 -43 -1 -27 -8 -49 -17 -56 -9 -6 -13 -14 -9 -17 3 -4 12 -2 20 4 10 9 13
7 13 -10 0 -33 1 -35 16 -52 8 -9 12 -24 8 -35 -5 -16 -4 -16 5 -4 9 12 11 13
11 1 0 -8 2 -12 5 -10 2 3 -2 29 -10 59 -17 65 -19 83 -5 75 16 -10 12 21 -5
35 -17 14 -20 40 -5 40 6 0 10 14 10 31 0 18 4 28 10 24 6 -4 8 -10 5 -15 -3
-5 0 -12 6 -16 8 -4 10 8 9 42 -4 72 -2 84 15 84 8 0 15 5 15 10 0 6 -7 10
-16 10 -10 0 -14 6 -10 15 7 18 -5 20 -23 3 -11 -10 -13 -10 -7 0 8 13 4 16
-7 5z"/>
<path d="M482 1142 c-20 -13 -23 -50 -4 -57 16 -6 16 -7 -1 -16 -21 -12 -69
-104 -59 -113 3 -4 19 8 34 26 l27 33 1 -34 c0 -57 21 -159 36 -178 13 -16 14
-10 12 55 -3 80 3 79 44 -5 11 -24 26 -43 34 -43 19 0 19 1 -21 119 -19 57
-35 106 -35 108 0 2 20 1 45 -3 31 -4 45 -3 45 5 0 13 -75 50 -103 51 -14 0
-16 4 -9 18 18 34 -11 55 -46 34z"/>
<path d="M1083 1111 c0 -11 4 -18 8 -15 4 2 12 -10 18 -26 5 -17 12 -30 15
-30 3 0 -2 20 -11 45 -15 46 -33 61 -30 26z"/>
<path d="M205 1037 c-11 -64 -13 -107 -6 -103 4 3 8 26 9 53 2 28 9 53 18 59
13 10 13 12 0 17 -11 4 -17 -3 -21 -26z"/>
<path d="M310 1040 c-9 -16 -8 -25 1 -36 6 -8 7 -14 2 -14 -10 0 -33 -66 -33
-91 1 -8 7 -3 15 11 13 23 14 23 16 5 2 -23 2 -25 13 -85 13 -70 28 -85 21
-20 l-6 55 22 -40 c42 -79 50 -72 20 15 -21 62 -33 120 -25 120 3 0 14 -5 25
-10 33 -18 23 19 -11 38 -22 12 -29 23 -27 41 3 31 -18 38 -33 11z"/>
<path d="M641 914 c-10 -22 -9 -31 4 -50 8 -13 21 -24 28 -25 6 0 3 -4 -8 -8
-11 -5 -33 -32 -48 -60 -27 -48 -27 -51 -8 -51 11 0 27 10 36 23 20 28 30 14
40 -52 9 -65 15 -81 29 -81 7 0 13 16 14 37 4 49 8 52 29 14 10 -17 24 -31 31
-31 16 0 15 3 -8 78 -26 83 -26 84 14 77 19 -4 36 -2 40 3 7 11 -74 62 -98 62
-12 0 -14 5 -6 24 21 57 -64 95 -89 40z"/>
<path d="M405 850 c-4 -13 0 -31 9 -45 9 -14 12 -25 7 -25 -6 0 -13 -16 -17
-35 -7 -40 -14 -43 -39 -15 -10 11 -26 22 -37 26 -12 3 -17 11 -14 21 7 17
-12 58 -22 48 -4 -4 -7 -33 -7 -66 0 -42 4 -58 12 -55 7 3 23 -18 38 -51 14
-31 28 -53 31 -50 3 3 0 16 -6 29 -8 16 -2 12 19 -12 l32 -35 -31 57 c-37 70
-38 81 -2 62 25 -13 28 -13 41 6 13 20 16 17 42 -46 36 -86 54 -104 46 -49
l-6 40 29 -34 c46 -54 52 -31 9 39 -21 36 -39 68 -39 72 0 4 16 0 34 -7 20 -8
37 -11 41 -6 8 14 -95 73 -117 67 -18 -4 -18 -3 -5 12 17 20 14 51 -5 63 -22
14 -36 10 -43 -11z"/>
<path d="M226 775 c7 -51 35 -105 76 -146 18 -18 33 -36 33 -39 0 -4 15 -20
33 -35 23 -19 36 -25 44 -17 7 7 0 17 -26 34 -20 12 -38 31 -42 41 -3 9 -13
17 -23 17 -19 0 -66 77 -50 82 6 2 0 13 -11 26 -15 15 -19 29 -15 43 5 14 3
19 -3 15 -6 -3 -13 0 -16 6 -3 7 -3 -5 0 -27z"/>
<path d="M840 685 c-7 -8 -10 -23 -8 -32 3 -11 -8 -32 -28 -53 -39 -40 -37
-51 3 -22 l28 20 -3 -39 c-4 -42 12 -54 23 -18 5 15 10 18 18 10 20 -20 28
-11 25 31 -2 35 0 43 14 43 27 0 22 20 -5 23 -20 2 -23 8 -19 28 3 19 0 24
-16 24 -11 0 -25 -7 -32 -15z"/>
<path d="M610 625 c-8 -10 -7 -17 3 -26 12 -11 10 -17 -10 -39 -23 -25 -14
-42 12 -20 11 9 18 3 37 -32 19 -37 23 -40 26 -20 4 23 16 29 27 12 3 -5 13
-10 20 -10 11 0 9 8 -7 36 l-21 36 32 -5 c47 -8 37 9 -13 22 -31 8 -43 16 -42
27 1 23 -49 37 -64 19z"/>
<path d="M420 611 c0 -6 5 -13 11 -17 6 -3 8 -17 4 -31 -5 -20 -3 -24 9 -20 9
4 24 -7 41 -29 24 -32 56 -49 38 -21 -4 6 6 3 22 -7 30 -19 30 -19 15 0 -8 10
-21 23 -27 27 -22 14 -14 24 15 20 23 -3 22 -1 -12 17 -22 11 -46 20 -53 20
-8 0 -11 5 -8 10 4 6 1 17 -5 25 -14 17 -50 20 -50 6z"/>
<path d="M924 576 c-10 -8 -16 -17 -12 -21 4 -4 -5 -18 -20 -32 -15 -13 -20
-21 -12 -17 8 5 20 9 27 10 16 3 62 37 63 47 0 5 -5 5 -12 1 -8 -5 -9 -2 -5 9
8 21 -3 22 -29 3z"/>
<path d="M762 513 c-6 -2 -10 -9 -7 -13 3 -5 -4 -15 -15 -23 -20 -14 -19 -15
19 -15 22 0 43 4 47 9 3 6 16 14 28 19 19 8 19 9 -7 9 -16 1 -26 5 -22 11 6
10 -20 12 -43 3z"/>
<path d="M460 496 c0 -2 7 -7 16 -10 8 -3 12 -2 9 4 -6 10 -25 14 -25 6z"/>
<path d="M587 471 c-4 -16 2 -20 34 -23 42 -4 50 7 22 28 -26 19 -50 17 -56
-5z"/>
<path d="M678 453 c7 -3 16 -2 19 1 4 3 -2 6 -13 5 -11 0 -14 -3 -6 -6z"/>
<path d="M108 233 c-2 -49 -2 -121 0 -160 3 -65 5 -73 22 -73 18 0 20 7 20 73
l0 73 83 -2 c45 -1 88 -2 95 -3 10 -1 13 -17 12 -58 -2 -82 -2 -83 20 -83 19
0 20 7 20 160 0 153 -1 160 -20 160 -18 0 -20 -7 -20 -70 l0 -70 -95 0 -95 0
0 70 c0 62 -2 70 -19 70 -18 0 -20 -9 -23 -87z"/>
<path d="M471 299 c-46 -28 -51 -102 -8 -137 8 -7 48 -16 87 -21 71 -7 95 -21
85 -49 -3 -8 -5 -20 -5 -27 0 -28 -77 -37 -157 -20 -18 4 -23 1 -23 -14 0 -16
9 -21 46 -27 105 -15 173 12 180 73 9 69 -33 103 -127 103 -37 0 -51 5 -62 21
-16 22 -12 52 9 70 15 13 97 16 137 6 23 -6 27 -4 27 12 0 13 -9 21 -29 26
-48 10 -130 2 -160 -16z"/>
<path d="M734 307 c-2 -7 -3 -78 -2 -157 l3 -145 103 -3 c56 -1 102 1 102 5
-1 23 -21 30 -90 29 l-75 0 -1 124 c-1 69 -2 133 -3 143 -1 20 -29 23 -37 4z"/>
<path d="M1096 312 c-10 -17 -126 -297 -126 -304 0 -5 9 -8 19 -8 14 0 24 13
37 48 10 26 20 52 24 57 3 6 19 43 35 83 25 64 45 91 45 62 0 -6 11 -33 24
-60 15 -32 20 -50 13 -51 -7 -1 -23 -2 -37 -3 -24 -1 -40 -12 -40 -28 0 -5 24
-8 53 -8 l52 0 18 -50 c13 -37 23 -50 37 -50 11 0 20 6 20 13 0 7 -28 78 -63
158 -50 114 -67 145 -84 147 -12 2 -24 -1 -27 -6z"/>
</g>
</svg>
